# Wavefront OBJ file automatically generated by Tiled2Unity

# Vertices (Count = 66)
v 0 -1 0
v -1 -1 0
v -1 0 0
v 0 0 0
v -2 -1 0
v -2 0 0
v -3 -1 0
v -3 0 0
v -4 -1 0
v -4 0 0
v -5 -1 0
v -5 0 0
v 0 -2 0
v -1 -2 0
v -2 -2 0
v -3 -2 0
v -4 -2 0
v -5 -2 0
v 0 -3 0
v -1 -3 0
v -2 -3 0
v -3 -3 0
v -4 -3 0
v -5 -3 0
v 0 -4 0
v -1 -4 0
v -2 -4 0
v -3 -4 0
v -4 -4 0
v -5 -4 0
v 0 -5 0
v -1 -5 0
v -2 -5 0
v -3 -5 0
v -4 -5 0
v -5 -5 0
v 0 -6 0
v -1 -6 0
v -2 -6 0
v -3 -6 0
v -4 -6 0
v -5 -6 0
v 0 -7 0
v -1 -7 0
v -2 -7 0
v -3 -7 0
v -4 -7 0
v -5 -7 0
v 0 -8 0
v -1 -8 0
v -2 -8 0
v -3 -8 0
v -4 -8 0
v -5 -8 0
v 0 -9 0
v -1 -9 0
v -2 -9 0
v -3 -9 0
v -4 -9 0
v -5 -9 0
v 0 -10 0
v -1 -10 0
v -2 -10 0
v -3 -10 0
v -4 -10 0
v -5 -10 0

# Texture cooridinates (Count = 8)
vt 0.0001220703 0.3334554
vt 0.1665446 0.3334554
vt 0.1665446 0.4998779
vt 0.0001220703 0.4998779
vt 0.0001220703 0.1667888
vt 0.1665446 0.1667888
vt 0.1665446 0.3332112
vt 0.0001220703 0.3332112

# Normal
vn 0 0 -1

# Groups (Count = 1)

g mesh_0001
f 1/1/1 2/2/1 3/3/1 4/4/1
f 2/5/1 5/6/1 6/7/1 3/8/1
f 5/5/1 7/6/1 8/7/1 6/8/1
f 7/5/1 9/6/1 10/7/1 8/8/1
f 9/1/1 11/2/1 12/3/1 10/4/1
f 13/1/1 14/2/1 2/3/1 1/4/1
f 14/1/1 15/2/1 5/3/1 2/4/1
f 15/1/1 16/2/1 7/3/1 5/4/1
f 16/1/1 17/2/1 9/3/1 7/4/1
f 17/1/1 18/2/1 11/3/1 9/4/1
f 19/1/1 20/2/1 14/3/1 13/4/1
f 20/5/1 21/6/1 15/7/1 14/8/1
f 21/5/1 22/6/1 16/7/1 15/8/1
f 22/5/1 23/6/1 17/7/1 16/8/1
f 23/1/1 24/2/1 18/3/1 17/4/1
f 25/1/1 26/2/1 20/3/1 19/4/1
f 26/1/1 27/2/1 21/3/1 20/4/1
f 27/1/1 28/2/1 22/3/1 21/4/1
f 28/1/1 29/2/1 23/3/1 22/4/1
f 29/1/1 30/2/1 24/3/1 23/4/1
f 31/1/1 32/2/1 26/3/1 25/4/1
f 32/5/1 33/6/1 27/7/1 26/8/1
f 33/1/1 34/2/1 28/3/1 27/4/1
f 34/5/1 35/6/1 29/7/1 28/8/1
f 35/1/1 36/2/1 30/3/1 29/4/1
f 37/1/1 38/2/1 32/3/1 31/4/1
f 38/1/1 39/2/1 33/3/1 32/4/1
f 39/1/1 40/2/1 34/3/1 33/4/1
f 40/1/1 41/2/1 35/3/1 34/4/1
f 41/1/1 42/2/1 36/3/1 35/4/1
f 43/1/1 44/2/1 38/3/1 37/4/1
f 44/5/1 45/6/1 39/7/1 38/8/1
f 45/5/1 46/6/1 40/7/1 39/8/1
f 46/5/1 47/6/1 41/7/1 40/8/1
f 47/1/1 48/2/1 42/3/1 41/4/1
f 49/1/1 50/2/1 44/3/1 43/4/1
f 50/1/1 51/2/1 45/3/1 44/4/1
f 51/1/1 52/2/1 46/3/1 45/4/1
f 52/1/1 53/2/1 47/3/1 46/4/1
f 53/1/1 54/2/1 48/3/1 47/4/1
f 55/1/1 56/2/1 50/3/1 49/4/1
f 56/5/1 57/6/1 51/7/1 50/8/1
f 57/1/1 58/2/1 52/3/1 51/4/1
f 58/5/1 59/6/1 53/7/1 52/8/1
f 59/1/1 60/2/1 54/3/1 53/4/1
f 61/1/1 62/2/1 56/3/1 55/4/1
f 62/1/1 63/2/1 57/3/1 56/4/1
f 63/1/1 64/2/1 58/3/1 57/4/1
f 64/1/1 65/2/1 59/3/1 58/4/1
f 65/1/1 66/2/1 60/3/1 59/4/1

